<?xml version="1.0" standalone="no"?>
<!DOCTYPE svg PUBLIC "-//W3C//DTD SVG 20010904//EN"
 "http://www.w3.org/TR/2001/REC-SVG-20010904/DTD/svg10.dtd">
<svg version="1.0" xmlns="http://www.w3.org/2000/svg"
 width="300.000000pt" height="168.000000pt" viewBox="0 0 300.000000 168.000000"
 preserveAspectRatio="xMidYMid meet">
<metadata>
Created by potrace 1.10, written by Peter Selinger 2001-2011
</metadata>
<g transform="translate(0.000000,168.000000) scale(0.100000,-0.100000)"
fill="#4333fe" stroke="none">
<path d="M1227 1174 c-4 -4 -7 -17 -7 -30 0 -17 -7 -24 -29 -29 -17 -3 -49
-20 -71 -36 -36 -26 -41 -34 -35 -57 9 -37 13 -39 31 -14 15 21 63 52 82 52 5
0 12 -36 15 -80 l6 -81 -39 -39 c-60 -60 -83 -113 -78 -176 3 -29 10 -60 17
-68 21 -25 67 -20 95 11 29 31 56 134 56 211 0 28 6 54 13 60 24 19 71 22 102
7 l30 -15 -25 21 c-18 16 -35 20 -67 17 l-43 -3 0 82 0 82 38 11 c20 5 54 13
75 16 67 11 36 29 -45 27 -66 -2 -76 0 -74 15 1 17 -33 29 -47 16z m-9 -431
c-8 -71 -20 -98 -48 -113 -28 -15 -50 12 -50 61 0 45 30 110 68 148 l27 26 5
-30 c3 -16 2 -58 -2 -92z"/>
<path d="M1780 1153 c-51 -35 -71 -76 -108 -217 -15 -57 -31 -104 -37 -105
-11 -1 -13 161 -3 222 7 37 6 37 -27 37 -32 0 -34 -2 -54 -62 -11 -35 -29
-124 -41 -197 -11 -74 -23 -137 -26 -140 -3 -3 -10 1 -15 9 -8 12 -9 11 -7 -5
2 -14 11 -20 28 -20 23 0 26 6 46 110 12 61 24 103 27 95 35 -100 31 -95 67
-95 41 0 55 22 65 105 7 54 39 145 58 165 6 6 8 -4 4 -30 -17 -116 -17 -187
-3 -287 22 -155 68 -234 121 -210 14 6 25 17 25 23 0 8 -4 8 -14 0 -19 -16
-28 1 -50 91 -27 109 -31 248 -10 358 24 131 24 164 -1 168 -11 1 -31 -5 -45
-15z"/>
</g>
</svg>
